<?xml version="1.0" encoding="iso-8859-1"?>
<!-- Generator: Adobe Illustrator 19.0.0, SVG Export Plug-In . SVG Version: 6.00 Build 0)  -->
<svg version="1.1" id="Capa_1" xmlns="http://www.w3.org/2000/svg" xmlns:xlink="http://www.w3.org/1999/xlink" x="0px" y="0px"
	 viewBox="0 0 49 49" style="enable-background:new 0 0 49 49;" xml:space="preserve">
<g>
	<g>
		<path d="M29.311,0.327c-0.41-0.137-0.86,0.007-1.117,0.356l-17,23c-0.261,0.353-0.261,0.835,0,1.188l17,23
			c0.192,0.26,0.493,0.406,0.804,0.406c0.104,0,0.21-0.016,0.313-0.05c0.41-0.135,0.687-0.518,0.687-0.95v-46
			C29.998,0.845,29.721,0.462,29.311,0.327z M27.998,44.242L13.242,24.277L27.998,4.312V44.242z"/>
		<path d="M37.002,0h-4c-0.552,0-1,0.448-1,1v47c0,0.552,0.448,1,1,1h4c0.552,0,1-0.448,1-1V1C38.002,0.448,37.554,0,37.002,0z
			 M36.002,47h-2V2h2V47z"/>
	</g>
</g>
<g>
</g>
<g>
</g>
<g>
</g>
<g>
</g>
<g>
</g>
<g>
</g>
<g>
</g>
<g>
</g>
<g>
</g>
<g>
</g>
<g>
</g>
<g>
</g>
<g>
</g>
<g>
</g>
<g>
</g>
</svg>
